<?xml version="1.0" standalone="no"?>
<!DOCTYPE svg PUBLIC "-//W3C//DTD SVG 20010904//EN"
 "http://www.w3.org/TR/2001/REC-SVG-20010904/DTD/svg10.dtd">
<svg version="1.0" xmlns="http://www.w3.org/2000/svg"
 width="600.000000pt" height="600.000000pt" viewBox="0 0 600.000000 600.000000"
 preserveAspectRatio="xMidYMid meet">
<metadata>
Created by potrace 1.14, written by Peter Selinger 2001-2017
</metadata>
<g transform="translate(0.000000,600.000000) scale(0.100000,-0.100000)"
fill="#000000" stroke="none">
<path d="M532 5404 c3 -5 100 -178 215 -384 453 -809 496 -885 499 -889 10
-11 14 18 33 238 11 128 22 236 25 238 5 6 20 -9 910 -906 l658 -664 -483
-484 -484 -485 -195 6 c-107 4 -223 9 -257 12 l-62 6 -38 -76 c-20 -41 -35
-77 -33 -80 4 -3 370 -36 405 -36 5 0 -14 -24 -43 -52 l-51 -53 -133 6 c-73 4
-181 7 -240 8 l-108 1 -36 -71 c-19 -39 -34 -73 -32 -74 2 -2 84 -11 183 -20
98 -8 181 -18 184 -20 3 -3 -15 -26 -40 -50 l-44 -45 -210 10 c-318 15 -279
22 -321 -61 -19 -39 -33 -73 -30 -76 3 -3 85 -12 183 -20 98 -8 185 -17 192
-19 10 -3 -2 -21 -40 -57 l-54 -53 -140 7 c-77 4 -186 7 -242 8 l-103 1 -36
-71 c-19 -39 -34 -73 -32 -75 2 -1 87 -10 188 -19 102 -10 187 -19 189 -21 3
-3 -16 -26 -42 -52 l-48 -48 70 -62 c38 -34 73 -62 77 -62 5 0 39 30 75 66
l67 67 10 -39 c6 -21 23 -111 38 -199 15 -88 29 -162 30 -164 6 -7 166 54 171
65 2 6 -24 114 -58 239 l-62 227 69 69 c45 46 71 65 75 56 4 -6 21 -93 39
-192 18 -99 34 -182 37 -184 6 -8 173 53 173 63 0 5 -27 107 -60 228 -33 120
-60 223 -60 228 0 5 33 43 74 86 l73 77 26 -139 c15 -76 32 -172 38 -211 7
-41 17 -73 23 -72 23 1 160 57 163 66 2 5 -25 115 -61 244 l-64 234 56 57 c38
39 58 54 63 45 6 -10 35 -163 66 -344 3 -18 7 -33 9 -33 12 0 174 63 174 68 0
3 -28 107 -61 230 l-61 225 200 201 c110 110 328 332 486 491 l287 290 484
-489 c267 -269 485 -495 485 -501 0 -6 -27 -109 -60 -229 -33 -121 -59 -220
-58 -221 10 -8 171 -65 174 -62 3 2 20 88 38 191 18 103 35 189 38 191 2 2 30
-21 61 -53 l57 -58 -66 -238 c-53 -193 -64 -240 -53 -247 22 -14 159 -62 163
-58 4 4 76 397 76 414 0 5 34 -24 75 -65 41 -41 75 -81 75 -90 0 -8 -27 -114
-60 -235 -49 -181 -58 -222 -46 -230 20 -15 154 -60 161 -54 3 3 19 84 36 180
16 96 33 182 37 192 6 15 18 7 75 -49 37 -36 67 -71 67 -78 0 -6 -27 -112 -61
-235 -33 -123 -57 -227 -52 -231 10 -9 145 -60 159 -60 6 0 25 79 43 183 18
100 35 190 38 201 4 15 16 8 72 -48 36 -36 71 -66 76 -66 6 0 41 27 78 61 l67
61 -46 51 c-25 28 -42 52 -37 54 4 1 89 9 187 18 99 8 181 17 183 19 2 2 -12
36 -32 76 l-36 72 -247 -7 -247 -7 -49 51 c-35 35 -45 52 -35 55 8 3 91 10
186 17 94 6 177 15 183 19 8 5 1 28 -24 79 -34 66 -38 71 -69 71 -17 0 -129
-5 -247 -10 l-214 -11 -45 45 c-25 25 -43 48 -40 51 3 2 86 12 184 20 98 8
180 17 182 19 2 2 -12 37 -32 77 l-37 74 -240 -9 -240 -9 -50 50 -50 50 69 6
c37 4 130 12 206 18 75 7 137 16 137 21 0 5 -16 40 -36 79 l-35 71 -62 -6
c-34 -3 -150 -8 -257 -12 l-195 -6 -482 484 -483 483 242 245 c133 135 485
489 783 788 l540 542 7 -32 c7 -34 38 -381 38 -424 0 -56 -11 -75 331 536 326
583 398 714 395 717 -4 5 -1296 -542 -1296 -548 0 -4 10 -9 23 -12 54 -12 353
-100 367 -108 12 -7 -160 -183 -769 -789 -432 -429 -788 -779 -792 -778 -4 2
-359 353 -790 781 -577 574 -779 781 -769 786 8 5 99 32 203 61 103 30 187 56
187 59 0 4 -287 127 -637 275 -739 311 -668 282 -661 270z"/>
</g>
</svg>
